<?xml version="1.0" encoding="UTF-8"?>
<svg id="Layer_2" data-name="Layer 2" xmlns="http://www.w3.org/2000/svg" viewBox="0 0 546.3 112.26">
  <defs>
    <style>
      .cls-1, .cls-2 {
        fill: #fff;
      }

      .cls-3 {
        letter-spacing: 0em;
      }

      .cls-2 {
        font-family: MyriadPro-Regular, 'Myriad Pro';
        font-size: 73.17px;
      }

      .cls-4 {
        letter-spacing: 0em;
      }

      .cls-5 {
        letter-spacing: 0em;
      }

      .cls-6 {
        letter-spacing: 0em;
      }

      .cls-7 {
        letter-spacing: -.02em;
      }

      .cls-8 {
        letter-spacing: 0em;
      }

      .cls-9 {
        fill: none;
        stroke: #fff;
        stroke-miterlimit: 10;
        stroke-width: 4px;
      }
    </style>
  </defs>
  <g id="Layer_1-2" data-name="Layer 1">
    <g>
      <path class="cls-1" d="m96.29,64.97v4.82c0,1.57-1.44,2.84-3.22,2.84h-15.91c-1.78,0-3.22-1.27-3.22-2.84v-4.82c0-1.38,1.11-2.52,2.58-2.78v-5.43c0-.97-.9-1.76-2-1.76h-.65c-2.96,4.7-8.56,7.64-14.79,7.64s-11.83-2.94-14.79-7.64h-24.47c-1.78,0-3.22-1.27-3.22-2.84v-9.38c0-1.57,1.44-2.84,3.22-2.84h24.8c2.04-2.94,5.17-5.14,8.79-6.28v-3.53c0-.19.02-.38.06-.57h-8.65c-1.78,0-3.22-1.27-3.22-2.84v-4.07c0-1.57,1.44-2.84,3.22-2.84h8.59v-.35c0-1.57,1.44-2.84,3.22-2.84h4.9c1.78,0,3.22,1.27,3.22,2.84v.35h8.59c1.78,0,3.22,1.27,3.22,2.84v4.07c0,1.57-1.44,2.84-3.22,2.84h-8.65c.04.18.06.37.06.57v3.53c3.62,1.14,6.75,3.34,8.79,6.28h6.2c7.59,0,13.76,5.44,13.76,12.12v10.09c1.58.19,2.79,1.37,2.79,2.81Zm-3.35,27.26c-.04-.17-.09-.34-.17-.49l-4.79-13.45c-.42-1.18-1.67-1.99-3.07-1.99s-2.65.81-3.07,1.99l-4.86,13.65c-.02.07-.05.14-.06.21-.26.72-.39,1.46-.39,2.21,0,4.08,3.76,7.39,8.39,7.39s8.39-3.32,8.39-7.39c0-.72-.12-1.43-.36-2.12Z"/>
      <rect class="cls-9" x="2" y="2" width="542.3" height="108.26"/>
      <rect class="cls-9" x="2" y="2" width="114.13" height="108.26"/>
      <text class="cls-2" transform="translate(131.3 79.2) scale(.89 1)"><tspan class="cls-4" x="0" y="0">С</tspan><tspan x="42.07" y="0">а</tspan><tspan class="cls-5" x="77.34" y="0">н</tspan><tspan class="cls-7" x="117.08" y="0">т</tspan><tspan class="cls-6" x="145.69" y="0">е</tspan><tspan class="cls-8" x="182.06" y="0">хмар</tspan><tspan class="cls-3" x="339.6" y="0">к</tspan><tspan class="cls-6" x="374.21" y="0">е</tspan><tspan x="410.58" y="0">т</tspan></text>
    </g>
  </g>
</svg>